<?xml version="1.0" encoding="UTF-8" standalone="no"?>
<!-- Created with Inkscape (http://www.inkscape.org/) -->

<svg
   width="210mm"
   height="297mm"
   viewBox="0 0 210 297"
   version="1.1"
   id="svg2336"
   inkscape:export-filename="bitmap.svg"
   inkscape:export-xdpi="96"
   inkscape:export-ydpi="96"
   xmlns:inkscape="http://www.inkscape.org/namespaces/inkscape"
   xmlns:sodipodi="http://sodipodi.sourceforge.net/DTD/sodipodi-0.dtd"
   xmlns="http://www.w3.org/2000/svg"
   xmlns:svg="http://www.w3.org/2000/svg">
  <sodipodi:namedview
     id="namedview2338"
     pagecolor="#ffffff"
     bordercolor="#666666"
     borderopacity="1.0"
     inkscape:showpageshadow="2"
     inkscape:pageopacity="0.0"
     inkscape:pagecheckerboard="0"
     inkscape:deskcolor="#d1d1d1"
     inkscape:document-units="mm"
     showgrid="false" />
  <defs
     id="defs2333">
    <clipPath
       clipPathUnits="userSpaceOnUse"
       id="clipPath1260">
      <path
         d="M 0,800 H 800 V 0 H 0 Z"
         id="path1258" />
    </clipPath>
    <clipPath
       clipPathUnits="userSpaceOnUse"
       id="clipPath1268">
      <path
         d="M 300.37,268.297 H 486.463 V 82.2033 H 300.37 Z"
         id="path1266" />
    </clipPath>
    <clipPath
       clipPathUnits="userSpaceOnUse"
       id="clipPath1288">
      <path
         d="M 308.917,259.75 H 456.861 V 111.805 H 308.917 Z"
         id="path1286" />
    </clipPath>
    <clipPath
       clipPathUnits="userSpaceOnUse"
       id="clipPath1304">
      <path
         d="m 308.917,175.25 c 0,-46.668 37.831,-84.5 84.5,-84.5 v 0 c 46.668,0 84.499,37.832 84.499,84.5 v 0 c 0,46.668 -37.831,84.5 -84.499,84.5 v 0 c -46.669,0 -84.5,-37.832 -84.5,-84.5"
         id="path1302" />
    </clipPath>
    <clipPath
       clipPathUnits="userSpaceOnUse"
       id="clipPath1320">
      <path
         d="m 393.72,247.464 h 55.057 V 85.5382 H 393.72 Z"
         id="path1318" />
    </clipPath>
  </defs>
  <g
     inkscape:label="Layer 1"
     inkscape:groupmode="layer"
     id="layer1">
    <g
       id="g1254"
       transform="matrix(1.0747315,0,0,-1.0747315,-315.4858,322.13191)">
      <g
         id="g1256"
         clip-path="url(#clipPath1260)">
        <g
           id="g1262">
          <g
             id="g1264" />
          <g
             id="g1276">
            <g
               clip-path="url(#clipPath1268)"
               opacity="0.5"
               id="g1274">
              <g
                 transform="translate(393.4167,268.2966)"
                 id="g1272">
                <path
                   d="m 0,0 c -51.388,0 -93.047,-41.658 -93.047,-93.047 0,-51.388 41.659,-93.046 93.047,-93.046 51.388,0 93.047,41.658 93.047,93.046 C 93.047,-41.658 51.388,0 0,0 m 0,-5 c 48.549,0 88.047,-39.498 88.047,-88.047 0,-48.549 -39.498,-88.046 -88.047,-88.046 -48.549,0 -88.047,39.497 -88.047,88.046 C -88.047,-44.498 -48.549,-5 0,-5"
                   style="fill:#88baf2;fill-opacity:1;fill-rule:nonzero;stroke:none"
                   id="path1270" />
              </g>
            </g>
          </g>
        </g>
        <g
           id="g1278"
           transform="translate(477.9167,175.2499)">
          <path
             d="m 0,0 c 0,-46.668 -37.832,-84.5 -84.5,-84.5 -46.668,0 -84.5,37.832 -84.5,84.5 0,46.668 37.832,84.5 84.5,84.5 C -37.832,84.5 0,46.668 0,0"
             style="fill:#7db3ef;fill-opacity:1;fill-rule:nonzero;stroke:none"
             id="path1280" />
        </g>
        <g
           id="g1282">
          <g
             id="g1284" />
          <g
             id="g1296">
            <g
               clip-path="url(#clipPath1288)"
               opacity="0.0700073"
               id="g1294">
              <g
                 transform="translate(316.5551,167.6115)"
                 id="g1292">
                <path
                   d="m 0,0 c 0,46.668 37.832,84.5 84.5,84.5 21.39,0 40.92,-7.952 55.806,-21.056 -15.485,17.591 -38.167,28.694 -63.444,28.694 -46.668,0 -84.5,-37.832 -84.5,-84.5 0,-25.277 11.103,-47.959 28.694,-63.444 C 7.952,-40.92 0,-21.39 0,0"
                   style="fill:#000000;fill-opacity:1;fill-rule:nonzero;stroke:none"
                   id="path1290" />
              </g>
            </g>
          </g>
        </g>
      </g>
    </g>
    <g
       id="g1300"
       clip-path="url(#clipPath1304)"
       transform="matrix(1.0972107,0,0,-1.0972107,-324.47103,323.91809)">
      <g
         id="g1306"
         transform="translate(369.336,190.4555)">
        <path
           d="m 0,0 c 1.264,-5.162 -0.814,-10.141 -4.641,-11.12 -3.827,-0.98 -7.954,2.411 -9.218,7.573 -1.264,5.161 0.814,10.14 4.641,11.12 C -5.391,8.552 -1.264,5.162 0,0"
           style="fill:#ffffff;fill-opacity:1;fill-rule:nonzero;stroke:none"
           id="path1308" />
      </g>
      <g
         id="g1310"
         transform="translate(417.4618,190.4555)">
        <path
           d="m 0,0 c -1.264,-5.162 0.814,-10.141 4.641,-11.12 3.827,-0.98 7.954,2.411 9.218,7.573 C 15.123,1.614 13.045,6.593 9.218,7.573 5.391,8.552 1.264,5.162 0,0"
           style="fill:#f4f1ef;fill-opacity:1;fill-rule:nonzero;stroke:none"
           id="path1312" />
      </g>
      <g
         id="g1314">
        <g
           id="g1316" />
        <g
           id="g1328">
          <g
             clip-path="url(#clipPath1320)"
             opacity="0.5"
             id="g1326">
            <g
               transform="translate(436.2502,127.0472)"
               id="g1324">
              <path
                 d="m 0,0 -15.719,4.198 c -0.247,0.066 -0.486,0.151 -0.729,0.226 -0.486,0.151 -0.963,0.319 -1.43,0.506 -0.142,0.056 -0.285,0.11 -0.424,0.169 -0.249,0.106 -0.493,0.219 -0.735,0.335 -0.151,0.072 -0.301,0.147 -0.451,0.223 -0.235,0.12 -0.471,0.24 -0.701,0.369 -0.13,0.074 -0.256,0.154 -0.384,0.23 -0.191,0.114 -0.384,0.225 -0.571,0.345 -0.068,0.043 -0.133,0.091 -0.2,0.135 -0.137,0.09 -0.271,0.184 -0.405,0.277 -0.144,0.101 -0.289,0.201 -0.43,0.305 -0.084,0.063 -0.166,0.128 -0.248,0.191 -0.119,0.09 -0.238,0.18 -0.354,0.273 -0.138,0.111 -0.273,0.226 -0.408,0.34 -0.193,0.164 -0.388,0.326 -0.574,0.498 -3.604,3.312 -5.907,7.954 -6.198,13.074 l -0.09,1.597 C -20.343,27.26 -13.5,36.794 -13.5,47.93 v 0.175 4.024 c 0.004,0.012 0.009,0.025 0.014,0.037 3.63,-0.459 7.365,2.829 8.556,7.695 1.263,5.156 -0.809,10.128 -4.628,11.116 0.003,0.071 0.003,0.143 0.006,0.214 0.298,1.054 1.635,6.188 1.635,13.52 0,6.917 -3.942,14.583 -3.942,14.583 0,0 1.109,6.584 -4.391,9.25 0,0 -6.458,11.813 -21.458,9.417 0,0 -1.948,1.96 -4.822,2.456 V -41.509 H 8.109 l 4.128,22.102 C 13.857,-10.734 8.524,-2.277 0,0"
                 style="fill:#51504f;fill-opacity:1;fill-rule:nonzero;stroke:none"
                 id="path1322" />
            </g>
          </g>
        </g>
      </g>
      <g
         id="g1330"
         transform="translate(420.5312,131.2453)">
        <path
           d="m 0,0 c -8.028,2.144 -13.771,9.2 -14.242,17.495 l -1.557,27.457 h -25.526 l -1.63,-28.609 c -0.477,-8.381 -6.334,-15.484 -14.47,-17.55 l -12.322,-3.129 c -8.629,-2.192 -14.073,-10.708 -12.438,-19.46 l 4.093,-21.911 H 23.827 l 4.129,22.102 c 1.62,8.673 -3.713,17.13 -12.237,19.407 z"
           style="fill:#f4f1ef;fill-opacity:1;fill-rule:nonzero;stroke:none"
           id="path1332" />
      </g>
      <g
         id="g1334"
         transform="translate(426.7322,199.6968)">
        <path
           d="m 0,0 c 0,-23.38 -18.032,-51.333 -33.333,-51.333 -15.302,0 -33.334,27.953 -33.334,51.333 0,23.38 14.924,37.333 33.334,37.333 C -14.924,37.333 0,23.38 0,0"
           style="fill:#ffffff;fill-opacity:1;fill-rule:nonzero;stroke:none"
           id="path1336" />
      </g>
      <g
         id="g1338"
         transform="translate(406.7203,154.425)">
        <path
           d="m 0,0 h -26 v 17.985 c 0,5.163 4.185,9.348 9.348,9.348 h 7.304 C -4.185,27.333 0,23.148 0,17.985 Z"
           style="fill:none;stroke:#544e49;stroke-width:6;stroke-linecap:butt;stroke-linejoin:round;stroke-miterlimit:10;stroke-dasharray:none;stroke-opacity:1"
           id="path1340" />
      </g>
      <g
         id="g1342"
         transform="translate(393.1667,167.425)">
        <path
           d="m 0,0 c -11.736,0 -21.185,3.546 -24.125,8.772 -3.708,6.592 -3.401,22.667 -2.063,30.111 1.442,8.02 6.992,13.139 6.992,13.139 0,0 2.198,3.701 6.861,3.087 0.26,-0.147 12.567,-11.776 32.764,-4.337 2.55,-1.912 5.197,-5.047 5.899,-9.575 C 27.584,33.085 27.857,15.031 23.925,7.825 21.147,2.734 12.402,0 0,0 m 31.224,58.917 c 0,0 1.109,6.583 -4.391,9.25 0,0 -6.458,11.812 -21.458,9.416 0,0 -4.821,4.875 -10.5,1.208 0,0 -9.237,0.447 -13.875,-6.833 -1.988,0.6 -7.405,-2.557 -9.035,-8.042 -0.316,-0.342 -5.731,-2.095 -5.954,-19.034 -0.042,-0.87 -0.064,-1.765 -0.067,-2.682 -0.001,-0.04 -0.002,-0.076 -0.003,-0.115 l 0.005,0.008 c -0.005,-3.507 0.284,-7.345 0.963,-11.49 0,0 1.746,0.136 3.508,-2.309 V 11.91 7.825 7.553 c 0,-14.699 11.915,-26.615 26.614,-26.615 h 5.938 c 14.699,0 26.614,11.916 26.614,26.615 v 0.175 4.182 15.989 c 0.779,2.853 3.887,2.704 3.887,2.704 0,0 1.697,5.48 1.697,13.73 0,6.917 -3.943,14.584 -3.943,14.584"
           style="fill:#544e49;fill-opacity:1;fill-rule:nonzero;stroke:none"
           id="path1344" />
      </g>
      <g
         id="g1346"
         transform="translate(436.2502,127.0472)">
        <path
           d="m 0,0 -15.719,4.198 c -3.074,0.821 -5.808,2.367 -8.044,4.422 -4.891,-5.03 -11.726,-8.159 -19.296,-8.159 -7.94,0 -15.076,3.44 -20.002,8.909 C -65.6,6.303 -69.088,4.021 -73.144,2.991 l -12.322,-3.129 c -8.629,-2.192 -14.073,-10.708 -12.438,-19.46 l 4.093,-21.911 H 8.109 l 4.128,22.102 C 13.857,-10.734 8.524,-2.277 0,0"
           style="fill:#db674c;fill-opacity:1;fill-rule:nonzero;stroke:none"
           id="path1348" />
      </g>
      <g
         id="g1350"
         transform="translate(393.1916,118.5917)">
        <path
           d="m 0,0 c 10.772,0 20.423,4.948 26.975,12.763 -2.924,0.844 -5.533,2.34 -7.68,4.312 C 14.405,12.046 7.569,8.917 0,8.917 c -7.94,0 -15.076,3.44 -20.003,8.909 -1.83,-2.212 -4.16,-4.006 -6.835,-5.226 C -20.289,4.879 -10.697,0 0,0"
           style="fill:#ce5e4b;fill-opacity:1;fill-rule:nonzero;stroke:none"
           id="path1352" />
      </g>
    </g>
  </g>
</svg>
