<?xml version="1.0" encoding="UTF-8" standalone="no"?>
<!-- Created with Inkscape (http://www.inkscape.org/) -->

<svg
   width="210mm"
   height="297mm"
   viewBox="0 0 210 297"
   version="1.1"
   id="svg2336"
   inkscape:export-filename="bitmap.svg"
   inkscape:export-xdpi="96"
   inkscape:export-ydpi="96"
   xmlns:inkscape="http://www.inkscape.org/namespaces/inkscape"
   xmlns:sodipodi="http://sodipodi.sourceforge.net/DTD/sodipodi-0.dtd"
   xmlns="http://www.w3.org/2000/svg"
   xmlns:svg="http://www.w3.org/2000/svg">
  <sodipodi:namedview
     id="namedview2338"
     pagecolor="#ffffff"
     bordercolor="#666666"
     borderopacity="1.0"
     inkscape:showpageshadow="2"
     inkscape:pageopacity="0.0"
     inkscape:pagecheckerboard="0"
     inkscape:deskcolor="#d1d1d1"
     inkscape:document-units="mm"
     showgrid="false" />
  <defs
     id="defs2333">
    <clipPath
       clipPathUnits="userSpaceOnUse"
       id="clipPath544">
      <path
         d="M 0,800 H 800 V 0 H 0 Z"
         id="path542" />
    </clipPath>
    <clipPath
       clipPathUnits="userSpaceOnUse"
       id="clipPath552">
      <path
         d="M 300.37,493.902 H 486.463 V 307.809 H 300.37 Z"
         id="path550" />
    </clipPath>
    <clipPath
       clipPathUnits="userSpaceOnUse"
       id="clipPath572">
      <path
         d="M 308.917,485.355 H 456.861 V 337.411 H 308.917 Z"
         id="path570" />
    </clipPath>
    <clipPath
       clipPathUnits="userSpaceOnUse"
       id="clipPath588">
      <path
         d="m 308.917,400.855 c 0,-46.668 37.831,-84.5 84.5,-84.5 v 0 c 46.668,0 84.499,37.832 84.499,84.5 v 0 c 0,46.668 -37.831,84.501 -84.499,84.501 v 0 c -46.669,0 -84.5,-37.833 -84.5,-84.501"
         id="path586" />
    </clipPath>
    <clipPath
       clipPathUnits="userSpaceOnUse"
       id="clipPath600">
      <path
         d="m 360.083,407.883 h 66.084 V 366.2 h -66.084 z"
         id="path598" />
    </clipPath>
    <clipPath
       clipPathUnits="userSpaceOnUse"
       id="clipPath624">
      <path
         d="m 396.562,471.425 h 52.269 V 313.261 h -52.269 z"
         id="path622" />
    </clipPath>
    <clipPath
       clipPathUnits="userSpaceOnUse"
       id="clipPath656">
      <path
         d="m 373.917,354.45 h 19.008 v -24.288 h -19.008 z"
         id="path654" />
    </clipPath>
    <clipPath
       clipPathUnits="userSpaceOnUse"
       id="clipPath672">
      <path
         d="m 392.917,354.45 h 19.008 v -24.288 h -19.008 z"
         id="path670" />
    </clipPath>
    <clipPath
       clipPathUnits="userSpaceOnUse"
       id="clipPath696">
      <path
         d="m 355.98,349.735 h 22.187 V 313.261 H 355.98 Z"
         id="path694" />
    </clipPath>
    <clipPath
       clipPathUnits="userSpaceOnUse"
       id="clipPath712">
      <path
         d="m 406.98,349.735 h 22.187 V 313.261 H 406.98 Z"
         id="path710" />
    </clipPath>
    <clipPath
       clipPathUnits="userSpaceOnUse"
       id="clipPath728">
      <path
         d="m 355.203,444.794 h 46.28 v -29.25 h -46.28 z"
         id="path726" />
    </clipPath>
  </defs>
  <g
     inkscape:label="Layer 1"
     inkscape:groupmode="layer"
     id="layer1">
    <g
       id="g538"
       transform="matrix(1.0747315,0,0,-1.074732,-317.46694,558.44207)">
      <g
         id="g540"
         clip-path="url(#clipPath544)">
        <g
           id="g546">
          <g
             id="g548" />
          <g
             id="g560">
            <g
               clip-path="url(#clipPath552)"
               opacity="0.5"
               id="g558">
              <g
                 transform="translate(393.4167,493.9019)"
                 id="g556">
                <path
                   d="m 0,0 c -51.388,0 -93.047,-41.658 -93.047,-93.047 0,-51.388 41.659,-93.046 93.047,-93.046 51.388,0 93.047,41.658 93.047,93.046 C 93.047,-41.658 51.388,0 0,0 m 0,-5 c 48.549,0 88.047,-39.498 88.047,-88.047 0,-48.549 -39.498,-88.046 -88.047,-88.046 -48.549,0 -88.047,39.497 -88.047,88.046 C -88.047,-44.498 -48.549,-5 0,-5"
                   style="fill:#d9bfd7;fill-opacity:1;fill-rule:nonzero;stroke:none"
                   id="path554" />
              </g>
            </g>
          </g>
        </g>
        <g
           id="g562"
           transform="translate(477.9167,400.8553)">
          <path
             d="m 0,0 c 0,-46.668 -37.832,-84.5 -84.5,-84.5 -46.668,0 -84.5,37.832 -84.5,84.5 0,46.668 37.832,84.5 84.5,84.5 C -37.832,84.5 0,46.668 0,0"
             style="fill:#d2a4ce;fill-opacity:1;fill-rule:nonzero;stroke:none"
             id="path564" />
        </g>
        <g
           id="g566">
          <g
             id="g568" />
          <g
             id="g580">
            <g
               clip-path="url(#clipPath572)"
               opacity="0.0700073"
               id="g578">
              <g
                 transform="translate(316.5551,393.2169)"
                 id="g576">
                <path
                   d="m 0,0 c 0,46.668 37.832,84.5 84.5,84.5 21.39,0 40.92,-7.952 55.806,-21.056 -15.485,17.591 -38.167,28.694 -63.444,28.694 -46.668,0 -84.5,-37.832 -84.5,-84.5 0,-25.277 11.103,-47.959 28.694,-63.444 C 7.952,-40.92 0,-21.39 0,0"
                   style="fill:#000000;fill-opacity:1;fill-rule:nonzero;stroke:none"
                   id="path574" />
              </g>
            </g>
          </g>
        </g>
      </g>
    </g>
    <g
       id="g582"
       transform="matrix(1.1144725,0,0,-1.1144725,-332.6654,570.37099)">
      <g
         id="g584"
         clip-path="url(#clipPath588)">
        <g
           id="g590"
           transform="translate(360.0834,407.8825)">
          <path
             d="m 0,0 c 0,0 3.691,-22.47 -12.667,-39.72 58.173,-23.395 86.5,-2.167 86.5,-2.167 0,0 -8.333,22.35 -7.75,41.887 z"
             style="fill:#ffcc65;fill-opacity:1;fill-rule:nonzero;stroke:none"
             id="path592" />
        </g>
        <g
           id="g594">
          <g
             id="g596" />
          <g
             id="g608">
            <g
               clip-path="url(#clipPath600)"
               opacity="0.240005"
               id="g606">
              <g
                 transform="translate(360.0834,407.8825)"
                 id="g604">
                <path
                   d="m 0,0 c 0,0 14.295,-20.911 16.654,-37.245 10.888,-9.308 31.293,-1.083 31.293,-1.083 0,0 0.22,9.775 18.136,38.328 z"
                   style="fill:#000000;fill-opacity:1;fill-rule:nonzero;stroke:none"
                   id="path602" />
              </g>
            </g>
          </g>
        </g>
        <g
           id="g610"
           transform="translate(369.0622,420.65)">
          <path
             d="m 0,0 c 1.264,-6.292 -0.814,-12.361 -4.641,-13.555 -3.827,-1.194 -7.954,2.939 -9.218,9.231 -1.264,6.292 0.814,12.361 4.641,13.555 C -5.391,10.425 -1.264,6.292 0,0"
             style="fill:#ffffff;fill-opacity:1;fill-rule:nonzero;stroke:none"
             id="path612" />
        </g>
        <g
           id="g614"
           transform="translate(417.1879,420.65)">
          <path
             d="m 0,0 c -1.264,-6.292 0.814,-12.361 4.641,-13.555 3.827,-1.194 7.954,2.939 9.218,9.231 C 15.123,1.968 13.045,8.037 9.218,9.231 5.391,10.425 1.264,6.292 0,0"
             style="fill:#f4f1ef;fill-opacity:1;fill-rule:nonzero;stroke:none"
             id="path616" />
        </g>
        <g
           id="g618">
          <g
             id="g620" />
          <g
             id="g632">
            <g
               clip-path="url(#clipPath624)"
               opacity="0.5"
               id="g630">
              <g
                 transform="translate(448.5159,341.8604)"
                 id="g628">
                <path
                   d="M 0,0 C -0.1,0.505 -0.223,1.003 -0.368,1.493 -0.659,2.474 -1.039,3.422 -1.5,4.327 -3.576,8.399 -7.308,11.59 -12.036,12.853 l -15.931,4.255 c -0.625,0.167 -1.231,0.373 -1.827,0.598 -0.026,0.01 -0.051,0.021 -0.077,0.031 10.219,2.612 15.272,6.398 15.272,6.398 0,0 -2.004,5.38 -3.977,13.16 5.028,-8.174 10.227,-10.993 10.227,-10.993 -9.75,11.924 -14,39.72 -14,39.72 h -0.004 c 2.224,1.49 4.102,4.552 4.884,8.443 1.182,5.885 -0.56,11.572 -3.92,13.261 h 10e-4 c 0,0 3.012,15.018 -5.045,26.076 -6.477,8.891 -16.235,15.507 -25.52,15.763 V -28.599 h 47.814 l 4.168,22.317 c 0.2,1.069 0.293,2.135 0.285,3.186 C 0.307,-2.046 0.2,-1.01 0,0"
                   style="fill:#51504f;fill-opacity:1;fill-rule:nonzero;stroke:none"
                   id="path626" />
              </g>
            </g>
          </g>
        </g>
        <g
           id="g634"
           transform="translate(420.549,358.968)">
          <path
             d="m 0,0 c -8.028,2.144 -13.771,9.2 -14.242,17.495 l -1.557,27.457 h -25.526 l -1.63,-28.609 c -0.477,-8.381 -6.334,-15.484 -14.47,-17.55 l -12.538,-3.184 c -8.508,-2.161 -13.875,-10.558 -12.263,-19.186 l 4.134,-22.13 H 23.827 l 4.169,22.318 c 1.598,8.551 -3.66,16.89 -12.065,19.134 z"
             style="fill:#f4f1ef;fill-opacity:1;fill-rule:nonzero;stroke:none"
             id="path636" />
        </g>
        <g
           id="g638"
           transform="translate(426.75,427.4196)">
          <path
             d="m 0,0 c 0,-23.38 -18.032,-51.333 -33.333,-51.333 -15.302,0 -33.334,27.953 -33.334,51.333 0,23.38 14.924,37.333 33.334,37.333 C -14.924,37.333 0,23.38 0,0"
             style="fill:#ffffff;fill-opacity:1;fill-rule:nonzero;stroke:none"
             id="path640" />
        </g>
        <g
           id="g642"
           transform="translate(382.8889,465.9958)">
          <path
             d="m 0,0 c -6.132,-0.761 -14.972,-1.243 -20.756,-13.417 -6.072,-12.78 -3.356,-23.193 -3.356,-23.193 6.795,0.5 7.771,-10.898 7.771,-10.898 0,0 3.331,3.857 3.452,7.925 5.035,0.5 25.833,5.416 31.917,19.166 14.901,-0.083 16.383,-20.839 16.25,-23.5 l 2,-3.591 c 0,0 1.951,11.124 6.961,11.099 0,0 3.012,15.018 -5.045,26.076 C 29.321,3.218 11.828,11.486 0,0"
             style="fill:#ffcc65;fill-opacity:1;fill-rule:nonzero;stroke:none"
             id="path644" />
        </g>
        <g
           id="g646"
           transform="translate(436.4803,354.7133)">
          <path
             d="m 0,0 -15.931,4.255 c -1.376,0.367 -2.683,0.882 -3.908,1.52 l 0.609,0.924 -9.22,8.142 L -43.555,-0.263 -59.743,15.925 -68.48,6.783 -67.602,5.57 C -69.336,4.441 -71.27,3.577 -73.356,3.047 l -12.538,-3.183 c -8.508,-2.161 -13.875,-10.558 -12.263,-19.186 l 4.134,-22.13 H 7.896 l 4.169,22.318 C 13.662,-10.583 8.405,-2.245 0,0"
             style="fill:#ffffff;fill-opacity:1;fill-rule:nonzero;stroke:none"
             id="path648" />
        </g>
        <g
           id="g650">
          <g
             id="g652" />
          <g
             id="g664">
            <g
               clip-path="url(#clipPath656)"
               opacity="0.100006"
               id="g662">
              <g
                 transform="translate(373.9167,352.3292)"
                 id="g660">
                <path
                   d="M 0,0 12.5,-14.918 19.009,2.121 14.5,-22.167 Z"
                   style="fill:#000000;fill-opacity:1;fill-rule:nonzero;stroke:none"
                   id="path658" />
              </g>
            </g>
          </g>
        </g>
        <g
           id="g666">
          <g
             id="g668" />
          <g
             id="g680">
            <g
               clip-path="url(#clipPath672)"
               opacity="0.100006"
               id="g678">
              <g
                 transform="translate(411.9254,352.3292)"
                 id="g676">
                <path
                   d="M 0,0 -12.5,-14.918 -19.009,2.121 -14.5,-22.167 Z"
                   style="fill:#000000;fill-opacity:1;fill-rule:nonzero;stroke:none"
                   id="path674" />
              </g>
            </g>
          </g>
        </g>
        <g
           id="g682"
           transform="translate(368.8784,360.2833)">
          <path
             d="M 0,0 C -1.734,-1.129 -3.668,-1.993 -5.754,-2.523 L -18.292,-5.706 C -26.8,-7.867 -32.167,-16.264 -30.555,-24.892 l 4.133,-22.13 h 47.054 z"
             style="fill:#d6bbb8;fill-opacity:1;fill-rule:nonzero;stroke:none"
             id="path684" />
        </g>
        <g
           id="g686"
           transform="translate(436.4803,354.7133)">
          <path
             d="m 0,0 -15.931,4.255 c -1.376,0.367 -2.683,0.882 -3.908,1.52 L -39.918,-41.452 H 7.896 l 4.169,22.318 C 13.662,-10.583 8.405,-2.245 0,0"
             style="fill:#d6bbb8;fill-opacity:1;fill-rule:nonzero;stroke:none"
             id="path688" />
        </g>
        <g
           id="g690">
          <g
             id="g692" />
          <g
             id="g704">
            <g
               clip-path="url(#clipPath696)"
               opacity="0.240005"
               id="g702">
              <g
                 transform="translate(355.9803,349.7351)"
                 id="g700">
                <path
                   d="m 0,0 12.452,-26.739 6.818,1.333 -4.167,-7.974 1.167,-3.094 h 2.666 l -1,3.094 4.25,10.141 -8.734,-1.5 z"
                   style="fill:#000000;fill-opacity:1;fill-rule:nonzero;stroke:none"
                   id="path698" />
              </g>
            </g>
          </g>
        </g>
        <g
           id="g706">
          <g
             id="g708" />
          <g
             id="g720">
            <g
               clip-path="url(#clipPath712)"
               opacity="0.240005"
               id="g718">
              <g
                 transform="translate(429.1667,349.7351)"
                 id="g716">
                <path
                   d="m 0,0 -12.452,-26.739 -6.818,1.333 4.167,-7.974 -1.167,-3.094 h -2.666 l 1,3.094 -4.25,10.141 8.734,-1.5 z"
                   style="fill:#000000;fill-opacity:1;fill-rule:nonzero;stroke:none"
                   id="path714" />
              </g>
            </g>
          </g>
        </g>
        <g
           id="g722">
          <g
             id="g724" />
          <g
             id="g736">
            <g
               clip-path="url(#clipPath728)"
               opacity="0.240005"
               id="g734">
              <g
                 transform="translate(384.75,421.9125)"
                 id="g732">
                <path
                   d="m 0,0 c 13.917,11.25 16.733,22.881 16.733,22.881 0,0 -32.326,-29.638 -46.28,-28.468 0,0 17.856,-3.864 29.547,5.587"
                   style="fill:#000000;fill-opacity:1;fill-rule:nonzero;stroke:none"
                   id="path730" />
              </g>
            </g>
          </g>
        </g>
        <g
           id="g738"
           transform="translate(426.1667,407.8825)">
          <path
             d="m 0,0 c 0,0 4.25,-27.796 14,-39.72 0,0 -12.487,6.75 -17.47,29.75 z"
             style="fill:#ffcc65;fill-opacity:1;fill-rule:nonzero;stroke:none"
             id="path740" />
        </g>
        <g
           id="g742"
           transform="translate(401.9167,445.5792)">
          <path
             d="m 0,0 c 0,0 -17.75,-34.196 -49.5,-29.326 0,0 18.031,8.909 17.016,18.909 z"
             style="fill:#ffcc65;fill-opacity:1;fill-rule:nonzero;stroke:none"
             id="path744" />
        </g>
        <g
           id="g746"
           transform="translate(398.6667,446.9125)">
          <path
             d="m 0,0 c 0,0 11.875,-7.87 14.875,-18.25 0,0 -1.25,15.181 -10.67,20.76 z"
             style="fill:#ffcc65;fill-opacity:1;fill-rule:nonzero;stroke:none"
             id="path748" />
        </g>
      </g>
    </g>
  </g>
</svg>
